<svg xmlns="http://www.w3.org/2000/svg" version="1.1" viewBox="-5.0 -10.0 110.0 135.0">
 <path d="m76.375 70.043c1.7188 2.1094 2.0547 5.0234 0.86719 7.4727s-3.6875 3.9844-6.4102 3.9414h-55.5c-2.6953 0.015625-5.1602-1.5273-6.3203-3.9648-1.1602-2.4375-0.80859-5.3242 0.90625-7.4102l25-30.707c1.4375-1.7891 3.6719-2.7422 5.957-2.543 2.3047 0.16797 4.3789 1.4609 5.543 3.4609l7.75 13.875-9.168 15.832c-0.44531 0.6875-0.58203 1.5312-0.375 2.3203 0.20312 0.79297 0.73438 1.4648 1.457 1.8477 0.44922 0.24219 0.94922 0.37109 1.4609 0.375 1.0117-0.007813 1.9453-0.54688 2.457-1.418l6.875-11.875 0.625-0.875c1.1836-1.4609 2.918-2.3672 4.793-2.5 2.293-0.18359 4.5352 0.76562 6 2.543zm14.457-41.375-9.25-9.25c-0.26172-0.28516-0.58984-0.5-0.95703-0.625-0.35156-0.17188-0.73438-0.25781-1.125-0.25-0.38672 0-0.77344 0.085937-1.125 0.25-0.35156 0.12891-0.66797 0.34375-0.91797 0.625l-9.25 9.25c-1.1484 1.1484-1.1484 3.0156 0 4.1641 1.1523 1.1523 3.0156 1.1523 4.168 0l4.168-4.168v23.129c-0.10156 0.82812 0.16016 1.6562 0.71094 2.2812 0.55469 0.625 1.3477 0.98047 2.1836 0.98047s1.6289-0.35547 2.1836-0.98047c0.55078-0.625 0.8125-1.4531 0.71094-2.2812v-23.293l4.168 4.168c0.53125 0.55469 1.2695 0.87109 2.043 0.875 0.77344-0.007813 1.5156-0.30469 2.082-0.83594 1.125-1.082 1.2148-2.8477 0.20703-4.0391z"/>
<text x="0.0" y="117.5" font-size="5.0" font-weight="bold" font-family="Arbeit Regular, Helvetica, Arial-Unicode, Arial, Sans-serif" fill="#000000">Created by IconInnovate</text><text x="0.0" y="122.5" font-size="5.0" font-weight="bold" font-family="Arbeit Regular, Helvetica, Arial-Unicode, Arial, Sans-serif" fill="#000000">from Noun Project</text></svg>